<svg width="68" height="56" viewBox="0 0 68 56" fill="none" xmlns="http://www.w3.org/2000/svg">
<path d="M36.1173 2.96223e-07C41.0345 0.000253476 45.7995 1.87346 49.6001 5.30032C53.4006 8.72717 56.0013 13.4956 56.959 18.7927C60.1639 19.2681 63.0845 21.0636 65.1291 23.8156C67.1738 26.5675 68.1896 30.0701 67.9708 33.6138C67.752 37.1575 66.315 40.4774 63.9508 42.901C61.5867 45.3246 58.4722 46.6707 55.2381 46.6667H14.8718C11.295 46.6677 7.83767 45.2529 5.13355 42.6815C2.42943 40.1102 0.659691 36.5547 0.148718 32.6667H23.37C23.9334 32.6667 24.4738 32.4208 24.8723 31.9832C25.2707 31.5457 25.4945 30.9522 25.4945 30.3333C25.4945 29.7145 25.2707 29.121 24.8723 28.6834C24.4738 28.2458 23.9334 28 23.37 28H0.148718C0.701581 23.787 2.73008 19.9775 5.80226 17.3827C8.87444 14.7878 12.7476 13.6126 16.5969 14.1073C18.2395 9.91819 20.9638 6.34947 24.433 3.84227C27.9022 1.33506 31.9643 -0.00072625 36.1173 2.96223e-07ZM10.6227 37.3333C10.0593 37.3333 9.51887 37.5792 9.12044 38.0167C8.72201 38.4543 8.49818 39.0478 8.49818 39.6667C8.49818 40.2855 8.72201 40.879 9.12044 41.3166C9.51887 41.7542 10.0593 42 10.6227 42H48.8645C49.428 42 49.9684 41.7542 50.3668 41.3166C50.7652 40.879 50.9891 40.2855 50.9891 39.6667C50.9891 39.0478 50.7652 38.4543 50.3668 38.0167C49.9684 37.5792 49.428 37.3333 48.8645 37.3333H10.6227ZM0 53.6667C0 53.0478 0.223835 52.4543 0.622265 52.0167C1.02069 51.5792 1.56108 51.3333 2.12454 51.3333H40.3663C40.9298 51.3333 41.4702 51.5792 41.8686 52.0167C42.267 52.4543 42.4909 53.0478 42.4909 53.6667C42.4909 54.2855 42.267 54.879 41.8686 55.3166C41.4702 55.7542 40.9298 56 40.3663 56H2.12454C1.56108 56 1.02069 55.7542 0.622265 55.3166C0.223835 54.879 0 54.2855 0 53.6667Z" fill="#5C93F8"/>
</svg>
