<svg width="239" height="206" viewBox="0 0 239 206" fill="none" xmlns="http://www.w3.org/2000/svg">
<path d="M126.942 1.08968e-06C144.224 0.000932431 160.972 6.89165 174.33 19.4976C187.687 32.1035 196.828 49.6444 200.194 69.1302C211.459 70.8791 221.724 77.4841 228.91 87.6073C236.096 97.7304 239.666 110.615 238.897 123.651C238.128 136.686 233.078 148.899 224.768 157.814C216.459 166.73 205.512 171.682 194.146 171.667H52.27C39.6986 171.67 27.5471 166.466 18.0429 157.007C8.53874 147.548 2.31862 134.469 0.5227 120.167H82.1386C84.119 120.167 86.0183 119.262 87.4187 117.653C88.8191 116.043 89.6058 113.86 89.6058 111.583C89.6058 109.307 88.8191 107.124 87.4187 105.514C86.0183 103.904 84.119 103 82.1386 103H0.5227C2.46585 87.5023 9.59541 73.4887 20.3932 63.9433C31.191 54.398 44.804 50.075 58.3334 51.8948C64.1065 36.4848 73.6815 23.357 85.8747 14.1341C98.068 4.91112 112.345 -0.00267156 126.942 1.08968e-06ZM37.3357 137.333C35.3553 137.333 33.456 138.238 32.0557 139.847C30.6553 141.457 29.8686 143.64 29.8686 145.917C29.8686 148.193 30.6553 150.376 32.0557 151.986C33.456 153.596 35.3553 154.5 37.3357 154.5H171.744C173.725 154.5 175.624 153.596 177.024 151.986C178.425 150.376 179.212 148.193 179.212 145.917C179.212 143.64 178.425 141.457 177.024 139.847C175.624 138.238 173.725 137.333 171.744 137.333H37.3357ZM0 197.417C0 195.14 0.786715 192.957 2.18708 191.347C3.58744 189.738 5.48674 188.833 7.46715 188.833H141.876C143.856 188.833 145.756 189.738 147.156 191.347C148.556 192.957 149.343 195.14 149.343 197.417C149.343 199.693 148.556 201.876 147.156 203.486C145.756 205.096 143.856 206 141.876 206H7.46715C5.48674 206 3.58744 205.096 2.18708 203.486C0.786715 201.876 0 199.693 0 197.417Z" fill="#5C93F8"/>
</svg>
